<?xml version="1.0" encoding="utf-8"?>
<!-- Generator: Adobe Illustrator 19.2.1, SVG Export Plug-In . SVG Version: 6.00 Build 0)  -->
<svg version="1.1" id="Layer_1" xmlns="http://www.w3.org/2000/svg" xmlns:xlink="http://www.w3.org/1999/xlink" x="0px" y="0px"
	 viewBox="0 0 39.3 15.9" style="enable-background:new 0 0 39.3 15.9;" xml:space="preserve">
<style type="text/css">
	.st0{fill:#FFFFFF;}
</style>
<title>Logo_MassEffectAndromeda</title>
<g>
	<g>
		<g>
			<polygon class="st0" points="12.6,8 13.4,6.5 9.3,6.5 9.7,5.8 11,5.8 12.7,4.7 10.3,4.7 10.7,4 13.7,4 16,2.5 9.9,2.5 6.7,8 			
				"/>
			<polygon class="st0" points="18.7,8 19.6,6.5 15.5,6.5 15.8,5.8 17.2,5.8 18.9,4.7 16.5,4.7 16.9,4 19.9,4 22.1,2.5 16,2.5 
				12.9,8 			"/>
			<path class="st0" d="M16.9,11.2l0.9-1.5c0.4-0.6,0.1-1.2-0.7-1.2h-4.5L9.4,14h1.7l0.9-1.6h2.8C15.6,12.3,16.5,11.8,16.9,11.2z
				 M15.7,10.3l-0.2,0.3c-0.1,0.1-0.3,0.2-0.4,0.2H13l0.5-0.9h2.1C15.7,9.9,15.8,10.1,15.7,10.3z"/>
			<path class="st0" d="M9.8,12.7l0.6-1c0.4-0.6,0.1-1.2-0.7-1.2H6.9l0.2-0.3C7.2,10,7.5,9.8,7.7,9.8h2.7l2.2-1.5H7.8
				C7,8.5,6.1,9,5.7,9.6l-0.5,1c-0.4,0.6-0.1,1.2,0.7,1.2h2.8l-0.3,0.4c-0.1,0.1-0.3,0.2-0.4,0.2H5.2L3,13.9h4.8
				C8.5,13.9,9.4,13.4,9.8,12.7z"/>
			<polygon class="st0" points="35.6,13.3 35.7,13.2 35,13.2 34.9,13.3 35.2,13.3 34.8,13.9 34.9,13.9 35.4,13.3 			"/>
			<polygon class="st0" points="35.9,13.7 36,13.2 35.8,13.2 35.4,13.9 35.5,13.9 35.9,13.3 35.9,13.3 35.7,13.9 35.8,13.9 
				36.4,13.3 36.4,13.3 36.1,13.9 36.2,13.9 36.6,13.2 36.4,13.2 			"/>
			<polygon class="st0" points="4.7,8 4.7,8 4.7,8 6.2,8 6.4,8 9.5,2.5 7.8,2.5 5.9,6 5.2,2.5 5.2,2.5 3.7,2.5 3.7,2.5 0.5,8 2.2,8 
				4.1,4.7 			"/>
			<path class="st0" d="M23.5,8c0.7,0,1.6-0.5,2-1.2l1.8-3.1c0.4-0.6,0.1-1.2-0.7-1.2h-0.1h-4.4L19,8H23.5z M23,4h2.1
				c0.1,0,0.2,0.1,0.2,0.2c0,0,0,0.1,0,0.2l-1.1,1.9c-0.1,0.1-0.3,0.2-0.5,0.2h-2.1l0,0l0,0L23,4z"/>
			<path class="st0" d="M35.6,8.5L35.6,8.5h-4.5L28,14h4.5c0.7,0,1.6-0.5,2-1.2l1.8-3.1C36.6,9,36.3,8.5,35.6,8.5z M34.2,10.3
				L33,12.2c-0.1,0.1-0.3,0.2-0.5,0.2h-2.1l0,0l0,0l1.4-2.5H34c0.1,0,0.2,0.1,0.2,0.2C34.2,10.2,34.2,10.2,34.2,10.3z"/>
			<polygon class="st0" points="18.2,12.4 18.6,11.7 19.9,11.7 21.6,10.6 19.2,10.6 19.6,9.9 22.6,9.9 24.9,8.5 18.7,8.5 15.6,13.9 
				21.4,13.9 22.3,12.4 			"/>
			<polygon class="st0" points="24.3,12.4 24.7,11.7 26.1,11.7 27.8,10.6 25.4,10.6 25.8,9.9 28.8,9.9 31,8.5 24.9,8.5 21.8,13.9 
				27.6,13.9 28.5,12.4 			"/>
			<path class="st0" d="M27.2,8l0.5-0.9L28,6.7h1L30,6h-1.6l0.2-0.4h2l1.1-0.7l-1.3,2.2l-0.1,0.2c-0.2,0.4,0,0.7,0.4,0.7h1.8
				c0.4,0,1-0.3,1.2-0.7l1.1-1.9c0.2-0.4,0-0.7-0.4-0.7l0,0H28L26.2,8H27.2z M32.6,5.6h0.9c0.1,0,0.2,0.1,0.1,0.2L32.9,7
				c-0.1,0.1-0.2,0.1-0.3,0.1h-1c-0.1,0-0.2-0.1-0.1-0.2l0.6-1.1C32.3,5.7,32.4,5.6,32.6,5.6z"/>
			<path class="st0" d="M38.3,4.7L38.3,4.7h-2.6l-2,3.3h1l0.6-1h1.4l-0.6,1h1l0.5-0.9l0,0c0.2-0.3,0.2-0.5-0.2-0.5
				c0.5,0,0.7-0.3,0.9-0.7l0.3-0.5C38.9,5,38.7,4.7,38.3,4.7z M37.4,5.8L37.3,6c-0.1,0.1-0.2,0.1-0.3,0.1h-1.2l0.3-0.5h1.2
				C37.4,5.6,37.5,5.7,37.4,5.8z"/>
		</g>
	</g>
</g>
</svg>
