<?xml version="1.0" encoding="utf-8"?>
<!-- Generator: Adobe Illustrator 21.0.0, SVG Export Plug-In . SVG Version: 6.00 Build 0)  -->
<svg version="1.1" id="Layer_1" xmlns="http://www.w3.org/2000/svg" xmlns:xlink="http://www.w3.org/1999/xlink" x="0px" y="0px"
	 viewBox="0 0 385 128.3" style="enable-background:new 0 0 385 128.3;" xml:space="preserve">
<style type="text/css">
	.st0{fill:#FFFFFF;}
</style>
<g>
	<path class="st0" d="M290.6,122.3h-6.4l7.6-22.3h-3.3l-7.6,22.3h-6.4l16.7-49.5l5.4-0.1c10.1-0.1,10.3,1.4,6.9,11.2l-2.5,7.3
		c-1.1,3.3-1.7,4.2-5.1,5.8c3.6,2.2,0.6,7.7-0.7,11.8C293.7,113.4,292.1,117.8,290.6,122.3z M299,78.8h-3.3l-5.1,15h3.3L299,78.8z"
		/>
	<path class="st0" d="M294.2,122.3l16.7-49.5h6.4l-16.7,49.5H294.2z"/>
	<path class="st0" d="M314.4,122.3H308l10.9-49.5h6.3l-9.2,35.4c1.6-4.2,3.2-8.3,4.6-12.5l0.2-0.6l9.4-22.2h6.1L314.4,122.3z"/>
	<path class="st0" d="M336.9,122.3l16.7-49.5h6.4l-14.9,44h3.6l-1.9,5.5H336.9z"/>
	<path class="st0" d="M368.3,112.8c-2.2,6.4-3,10-10.5,10c-9.1,0-7.9-2.8-5.1-10.8l2.6-7.5h6.4l-4.1,12.2h3.1l5.7-16.8
		c-9.6,0.1-9.3-0.9-6.1-10.2l2.7-7.9c2.1-6.1,3.8-9.5,10.7-9.5c8.3,0,7.8,2,5.2,9.6l-2.7,7.8h-6.4l3.8-11.4h-3.1l-5.3,15.6l1.1-0.1
		c9.3-0.6,8.1,1.4,5.2,9.8L368.3,112.8z"/>
	<g>
		<path class="st0" d="M23.9,93.1l11-62.7c-2.2,8.4-3.9,18.5-6.8,27L16,93.1H4.5L34.6,3.9h11.5L35,68.4c3.4-14.3,6.5-28,11.4-42.3
			c2.5-7.4,5.1-14.8,7.6-22.2h11.5L35.3,93.1H23.9z"/>
		<path class="st0" d="M41.4,93.1L71.6,3.9h19.5L87.3,15h-7.9L70,43h8.3l-3.5,10.3h-8.3l-9.9,29.4h8.3l-3.5,10.3H41.4z"/>
		<path class="st0" d="M66.5,93.1L96.7,3.9h19.5L112.4,15h-7.9L95,43h8.3l-3.5,10.3h-8.3l-9.9,29.4h8.3l-3.5,10.3H66.5z"/>
		<path class="st0" d="M100.8,93.2c-3.1,0-6.1-0.1-9.1-0.1l30.1-89.2l9.3-0.1c14.1-0.3,19.7-0.1,14.4,15.5L124.6,81
			C120.2,94.1,111.5,93.2,100.8,93.2z M136.2,14.9h-6.5l-22.7,67.3h6.5L136.2,14.9z"/>
	</g>
	<g>
		<path class="st0" d="M94.2,111.7l-4.1,12h-3.4l9-26.5h5.9l-1.1,3.2H98l-2.7,8.1h2.5l-1.1,3.2H94.2z"/>
		<path class="st0" d="M104.3,118.9c-1.1,3.1-1.5,5.1-5.2,5.1c-0.6,0-1.1,0-1.7-0.1c-2.8-0.2-2.9-1.2-2.1-3.9
			c0.7-2.2,1.3-4.3,2.1-6.4c1.3-3.9,2.7-7.8,4-11.7c1.1-3.4,2.1-5,5.8-5c0.4,0,0.9,0,1.3,0c2.3,0.2,2.7,0.9,2,3.2
			c-0.6,2.2-1.3,4.3-2.1,6.5C107.2,110.7,105.7,114.8,104.3,118.9z M107.2,100.2h-1.7l-6.9,20.4h1.7L107.2,100.2z"/>
		<path class="st0" d="M112.9,123.7h-3.4l4-12h-1.7l-4,12h-3.4l9-26.5l2.9,0c5.4-0.1,5.5,0.8,3.7,6l-1.4,3.9
			c-0.6,1.7-0.9,2.2-2.8,3.1c1.9,1.2,0.3,4.1-0.4,6.3C114.6,118.9,113.8,121.3,112.9,123.7z M117.4,100.4h-1.7l-2.7,8h1.7
			L117.4,100.4z"/>
	</g>
	<g>
		<path class="st0" d="M152.7,106.4c-4,11.5-5.5,18.1-19,18.1c-16.3,0-14.2-5.1-9.2-19.5l4.7-13.5h11.5l-7.4,22h5.6L149,83.4
			c-17.2,0.1-16.8-1.5-11-18.3l4.9-14.3c3.8-11,6.8-17.2,19.3-17.2c14.9,0,14.1,3.6,9.3,17.3l-4.9,14h-11.5l6.9-20.5h-5.6l-9.5,28
			l2-0.1c16.8-1.1,14.6,2.5,9.3,17.7L152.7,106.4z"/>
		<path class="st0" d="M194.3,87.2c-3.8,11.3-6.5,14.3-17.9,14.3h-4.6l-7.5,22.2h-11.6l30.1-89.2l9.3-0.1
			c23.3-0.3,17.6,7.4,10.9,27.4C200.2,70.3,197.2,78.7,194.3,87.2z M197.1,45.2h-6.2l-15.4,45.5h6.2L197.1,45.2z"/>
		<path class="st0" d="M187.5,123.6l30.1-89.2h19.5l-3.7,11.1h-7.9l-9.5,28h8.3l-3.5,10.3h-8.3l-9.9,29.4h8.3l-3.5,10.3H187.5z"/>
		<path class="st0" d="M212.6,123.6l30.1-89.2h19.5l-3.7,11.1h-7.9l-9.5,28h8.3l-3.5,10.3h-8.3l-9.9,29.4h8.3l-3.5,10.3H212.6z"/>
		<path class="st0" d="M246.8,123.8c-3.1,0-6.1-0.1-9.1-0.1l30.1-89.2l9.3-0.1c14.1-0.3,19.7-0.1,14.4,15.5l-20.8,61.7
			C266.3,124.7,257.5,123.8,246.8,123.8z M282.2,45.4h-6.5L253,112.7h6.5L282.2,45.4z"/>
	</g>
	<polygon class="st0" points="339.3,72.9 318.2,122.3 324.1,122.3 340,82.9 329,122.3 335,122.3 347.5,72.9 	"/>
	<g>
		<path class="st0" d="M296.2,37.1h-0.8l0.2-0.5h2.1l-0.2,0.5h-0.8l-1.1,2.9h-0.5L296.2,37.1z"/>
		<path class="st0" d="M298.1,36.7h0.8l-0.3,2.5h0l1.5-2.5h0.8l-1.2,3.4h-0.5l1-2.8h0l-1.7,2.8h-0.5l0.3-2.8h0l-1,2.8h-0.5
			L298.1,36.7z"/>
	</g>
</g>
</svg>
