<svg xmlns="http://www.w3.org/2000/svg" viewBox="0 0 478.7 195.28"><defs><style>.cls-1{fill:#fff;}</style></defs><title>Asset 1</title><g id="Layer_2" data-name="Layer 2"><g id="Need_For_Speed" data-name="Need For Speed"><polygon class="cls-1" points="150.71 68.2 161.39 49.68 109.88 49.68 114.83 41.04 131.35 41.04 152.94 26.73 123.1 26.73 127.85 18.52 165.63 18.52 193.59 0 116.91 0 77.57 68.2 150.71 68.2"/><polygon class="cls-1" points="227.73 68.2 238.41 49.68 186.9 49.68 191.85 41.04 208.37 41.04 229.96 26.73 200.12 26.73 204.87 18.52 242.65 18.52 270.61 0 193.93 0 154.59 68.2 227.73 68.2"/><path class="cls-1" d="M204.82,107.72l11-19c4.61-8,.84-14.57-8.43-14.57H151.16l-39.41,68.23h21.4l11.6-20.07h34.81C188.82,122.28,200.15,115.72,204.82,107.72Zm-15-11.07-2.36,4.06a7.25,7.25,0,0,1-5.58,3H155.45l6.38-11.1h25.79C190.17,92.66,191.11,94.46,189.82,96.65Z"/><path class="cls-1" d="M116.29,127.71l7.07-12.23c4.6-8,.82-14.61-8.45-14.61h-35l2-3.55c1.47-2.55,4.73-4.64,7.21-4.67H123l28-18.52H90.8c-9.25,0-20.63,6.57-25.25,14.61l-6.85,11.9c-4.65,8-.86,14.55,8.36,14.6h35.28l-3.21,5.5a7.21,7.21,0,0,1-5.62,3.06H58.75l-27.93,18.5H91C100.31,142.28,111.66,135.73,116.29,127.71Z"/><polygon class="cls-1" points="438.96 134.23 439.75 132.85 431.11 132.85 430.32 134.23 434.39 134.23 428.57 142.34 430.26 142.34 436.06 134.23 438.96 134.23"/><polygon class="cls-1" points="442.71 139.82 443.99 132.85 441.44 132.85 435.99 142.34 437.65 142.34 442.08 134.63 442.14 134.63 440.67 142.34 441.83 142.34 449.21 134.63 449.27 134.63 444.86 142.34 446.53 142.34 451.99 132.85 449.38 132.85 442.71 139.82"/><polygon class="cls-1" points="52.27 68.19 52.26 68.2 52.27 68.2 71.46 68.2 73.66 68.2 113.03 0 91.64 0 66.93 42.8 59.28 0 58.48 0 40.09 0 39.37 0 0 68.2 21.4 68.2 44.98 27.38 52.27 68.19"/><path class="cls-1" d="M288,68.2c9.31,0,20.55-6.55,25.17-14.54l22.55-39.11c4.6-8,.83-14.54-8.44-14.54H271L231.63,68.2Zm-6.32-49.68h25.88c1.74,0,2.72.84,2.75,2.09a3.73,3.73,0,0,1-.56,1.9L295.82,46.63a7.31,7.31,0,0,1-5.67,3.06H263.69Z"/><path class="cls-1" d="M438.43,74.11h-56.3l-39.34,68.2h56.36c9.3,0,20.55-6.55,25.17-14.55l22.55-39.11C451.47,80.66,447.7,74.11,438.43,74.11ZM420.9,96.61,407,120.74a7.31,7.31,0,0,1-5.67,3.06H374.85l18-31.16h25.88c1.75,0,2.72.84,2.75,2.08A3.72,3.72,0,0,1,420.9,96.61Z"/><polygon class="cls-1" points="221.08 123.78 226.03 115.14 242.55 115.14 264.14 100.83 234.3 100.83 239.05 92.62 276.83 92.62 304.79 74.1 228.11 74.1 188.78 142.31 261.91 142.3 272.59 123.78 221.08 123.78"/><polygon class="cls-1" points="298.1 123.78 303.05 115.14 319.57 115.14 341.17 100.83 311.32 100.83 316.07 92.62 353.85 92.62 381.81 74.1 305.13 74.1 265.8 142.31 338.93 142.3 349.61 123.78 298.1 123.78"/><path class="cls-1" d="M334,68.2,340.52,57l3-5.24h12.27l13.11-8.68H348.56l2.88-5h25.06l13.87-9.2L374.15,57l-1.38,2.4c-2.8,4.82-.55,8.76,5,8.83h23c5.61,0,12.47-4,15.26-8.85l13.67-23.66c2.8-4.87.51-8.85-5.12-8.85H344.81L320.94,68.2Zm66.73-30.14h11.76c1.55,0,2.1,1.08,1.33,2.41l-8.43,14.63A4.48,4.48,0,0,1,402,57H389.88c-1.52,0-2-1.29-1.12-2.82l7.64-13.26A5.81,5.81,0,0,1,400.78,38.07Z"/><path class="cls-1" d="M472.37,26.84H439.51L415.62,68.2h13l7-12.16h17.16l-7,12.16h13l6.62-11.49v0c2.25-4,2-5.8-2.6-6.27,5.78-.53,8.51-3.93,11.33-8.82l3.41-5.9C480.32,30.82,478,26.84,472.37,26.84ZM461.76,40.48,460.31,43a4.38,4.38,0,0,1-3.43,1.84H442.1L446,38.07h14.46C462,38.09,462.5,39.16,461.76,40.48Z"/></g><g id="No_Limits" data-name="No Limits"><path class="cls-1" d="M402.78,155.36h-2.33v0l-17,0a17.33,17.33,0,0,0-13.62,7.85l-4.91,8.5c-2.51,4.35-.49,7.85,4.54,7.85H387l-4,6.93H368.08l.94-1.62H357.83l-1.52,2.53c-2.51,4.35-.43,7.85,4.54,7.85h19.29c5,0,11.11-3.5,13.62-7.85l5-8.75c2.51-4.35.42-7.85-4.55-7.85H376.64l4-6.93,14.91,0-1,1.69H406l1.29-2.33C409.84,158.87,407.81,155.36,402.78,155.36Z"/><polygon class="cls-1" points="66.95 155.42 51.59 182.02 48.51 155.42 44.92 155.42 36.6 155.42 32.62 155.42 32.48 162.55 13.59 195.27 24.78 195.27 40.2 168.56 43.34 195.27 55.25 195.27 78.26 155.42 66.95 155.42"/><path class="cls-1" d="M124.08,155.07H101.42a17.32,17.32,0,0,0-13.62,7.85l-14.15,24.5c-2.51,4.35-.49,7.86,4.55,7.86h22.66c5,0,11.1-3.5,13.62-7.86l14.15-24.5C131.14,158.57,129.05,155.07,124.08,155.07Zm-20.46,31.57H85.3l13.24-22.93h18.33Z"/><polygon class="cls-1" points="174.94 155.36 163.75 155.36 163.72 155.42 159.52 155.42 159.37 162.96 140.72 195.27 176.93 195.27 182.02 186.45 157 186.45 174.94 155.36"/><polygon class="cls-1" points="269.49 155.15 251.81 169.53 251.58 155.12 239.25 155.12 216.06 195.28 227.25 195.28 242.16 169.45 242.96 187.28 265.98 168.67 250.62 195.27 261.87 195.27 285.05 155.12 269.49 155.15"/><polygon class="cls-1" points="309.2 155.42 300.97 155.42 296.9 155.42 296.76 162.72 277.96 195.27 290.05 195.27 313.06 155.42 309.2 155.42"/><polygon class="cls-1" points="363.37 155.36 324.08 155.36 318.95 164.25 333.32 164.25 315.41 195.27 326.66 195.27 344.57 164.25 358.24 164.25 363.37 155.36"/><polygon class="cls-1" points="219.34 155.42 211.25 155.42 207.04 155.42 206.89 162.97 188.24 195.27 200.33 195.27 223.33 155.42 219.34 155.42"/></g></g></svg>