<svg xmlns="http://www.w3.org/2000/svg" width="238" height="96" viewBox="0 0 238 96">
  <path fill="#FFFFFF" d="M204.361086,75.22236 L198.191516,75.22236 L188.058494,82.4899013 L192.267596,75.22236 L187.269583,75.22236 L175.412294,95.753873 L180.396135,95.753873 L184.113938,89.3085373 L187.467992,86.9884054 L187.38296,95.739697 L192.739998,95.739697 L192.565209,83.5105703 L204.361086,75.22236 Z M175.88942,81.7480262 C177.779028,77.2211702 175.88942,75.0569739 171.996828,75.0569739 C169.493098,75.0569739 167.310601,75.8366516 164.991107,77.3062259 C161.684293,79.4137184 160.158435,82.0315453 158.160175,85.4952045 C156.161914,88.9588636 154.645504,91.5814159 155.53362,93.6841831 C156.15719,95.1537574 157.423228,95.9334351 159.94113,95.9334351 C163.833722,95.9334351 168.198716,93.7692388 171.562218,89.2423828 L166.365797,89.2423828 C165.383201,90.4000861 164.074647,91.5105361 162.402344,91.5105361 C161.45754,91.5105361 160.985138,91.1372359 160.914278,90.6458027 C160.800902,90.0409618 161.051275,89.2282068 163.2196,85.4952045 C165.387925,81.7622021 166.115424,81.0250523 166.927955,80.4202114 C167.646531,79.8777925 168.517504,79.5752649 169.417513,79.555478 C171.085092,79.555478 171.122884,80.5950482 170.773307,81.7480262 L175.88942,81.7480262 Z M80.8988348,75.22236 L61.5775949,95.753873 L66.8543247,95.753873 L69.6273242,92.6965913 L76.4062923,92.6965913 L75.7543776,95.753873 L80.4028128,95.753873 L84.791427,75.22236 L80.8988348,75.22236 Z M77.30858,88.4863317 L73.4679521,88.4863317 L78.4801368,83.0049611 L77.30858,88.4863317 Z M148.140529,75.22236 L128.819289,95.753873 L134.096019,95.753873 L136.869019,92.6965913 L143.647987,92.6965913 L142.996072,95.753873 L147.644507,95.753873 L152.033121,75.22236 L148.140529,75.22236 Z M144.554998,88.4863317 L140.719094,88.4863317 L145.726555,83.0049611 L144.554998,88.4863317 Z M127.416255,75.22236 L118.91302,75.22236 L107.055731,95.753873 L115.988852,95.753873 C119.649967,95.753873 123.622868,93.6180286 125.885673,89.6960135 C127.553252,86.8135686 126.466727,85.7456464 125.932913,85.2258613 C126.816305,84.7958572 129.178315,83.4963944 130.529384,81.1620866 C132.570161,77.6133717 131.677321,75.22236 127.411531,75.22236 L127.416255,75.22236 Z M121.010485,89.3983183 C120.433488,90.4731185 119.333127,91.1643999 118.114661,91.2175663 L114.713367,91.2175663 L116.796659,87.6121476 L120.197954,87.6121476 C121.577367,87.6215982 121.501783,88.5430355 121.005761,89.407769 L121.010485,89.3983183 Z M125.332963,81.4125285 C124.775353,82.4316431 123.711871,83.0709915 122.550515,83.0852916 L119.409042,83.0852916 L121.341166,79.7397654 L124.482639,79.7397654 C125.862053,79.7492161 125.795917,80.6139495 125.328239,81.4219791 L125.332963,81.4125285 Z M105.756626,75.2129094 L98.2926748,82.5938583 L99.3272351,75.2129094 L93.8190283,75.2129094 L92.9876009,87.3806069 L88.1596529,95.7444223 L93.2049058,95.7444223 L98.0328538,87.3806069 L111.260109,75.2129094 L105.756626,75.2129094 Z M61.1713292,75.2129094 L53.0365675,75.2129094 L41.1792784,95.7444223 L46.2245313,95.7444223 L50.4761489,88.4201772 L53.5609337,88.4201772 C58.1148885,88.4201772 62.4326424,85.1880587 64.3789385,81.80473 C66.3252345,78.4214013 65.72056,75.22236 61.1666052,75.22236 L61.1713292,75.2129094 Z M59.3147895,81.8283566 C58.5989575,83.0390463 57.3309716,83.8173828 55.9276675,83.9074972 L53.0932558,83.9074972 L55.4883337,79.7539414 L58.3227454,79.7539414 C59.7021591,79.7492161 59.928912,80.7557091 59.3100655,81.8236313 L59.3147895,81.8283566 Z M234.944388,13.3490274 L218.599281,13.3490274 L206.718372,33.9277935 L213.171382,33.9277935 L216.662433,27.8793846 L225.198736,27.8793846 L221.693514,33.9277935 L228.170144,33.9277935 L231.476958,28.2148823 L231.476958,28.2148823 C232.596551,26.2491494 232.450106,25.3324375 230.182577,25.0961715 C233.059505,24.8315536 234.410574,23.1398893 235.818332,20.7063498 L237.514255,17.7672011 C237.875799,17.1723047 238.074558,16.4927532 238.090585,15.7967429 C238.090585,14.3460698 236.933201,13.3490274 234.944388,13.3490274 Z M229.667659,20.1393114 L228.944884,21.3678945 C228.547955,21.9272197 227.910841,22.2668739 227.225341,22.2846064 L219.888938,22.2846064 L221.825786,18.9390803 L229.020468,18.9390803 C229.762139,18.9485309 230.059752,19.482492 229.667659,20.1393114 Z M211.13533,13.3490274 L171.48191,13.3490274 L159.624621,33.9325188 L166.143768,33.9325188 L169.365549,28.3519166 L170.872511,25.7435403 L176.975945,25.7435403 L183.499816,21.4245983 L173.371518,21.4245983 L174.788723,18.9485309 L187.245963,18.9485309 L194.157204,14.3602458 L186.093302,28.3519166 L185.403595,29.5426971 C184.014734,31.938434 185.134326,33.9041669 187.878982,33.9372442 L199.296937,33.9372442 C202.084108,33.9372442 205.499575,31.95261 206.888436,29.5332464 L213.681576,17.7624757 C215.075162,15.3289362 213.941398,13.3490274 211.13533,13.3490274 Z M205.844428,20.1393114 L201.654223,27.4068527 C201.26086,27.9669419 200.63217,28.3153422 199.948852,28.3519166 L193.911555,28.3519166 C193.155711,28.3519166 192.914786,27.7092731 193.35412,26.9343208 L197.133336,20.3188736 C197.595096,19.5270402 198.404833,19.001092 199.315833,18.9012777 L205.159445,18.9012777 C205.967253,18.9390803 206.227074,19.4730414 205.844428,20.1393114 Z M175.993348,46.0813151 L189.905586,36.8574916 L151.763852,36.8574916 L132.196963,70.7900104 L168.571914,70.7900104 L173.886436,61.5756375 L148.268078,61.5756375 L150.729292,57.2803222 L158.944362,57.2803222 L169.686782,50.1592658 L154.843913,50.1592658 L157.205923,46.0765898 L175.993348,46.0813151 Z M137.686274,46.0813151 L151.593787,36.8574916 L113.456778,36.8574916 L93.8898886,70.7900104 L130.264839,70.7900104 L135.579361,61.5803628 L109.956279,61.5803628 L112.417493,57.2850475 L120.637287,57.2850475 L131.379708,50.1639911 L116.532114,50.1639911 L118.894124,46.0813151 L137.686274,46.0813151 Z M218.065467,36.8574916 L190.061479,36.8574916 L170.49459,70.7852851 L198.522198,70.7852851 C203.151737,70.7852851 208.744976,67.5248147 211.045574,63.550821 L222.260396,44.0919556 C224.546821,40.1274126 222.671386,36.8574916 218.065467,36.8574916 Z M209.344926,48.0517733 L202.419514,60.0540847 C201.76292,60.9748555 200.715147,61.5373152 199.585102,61.5756375 L186.438156,61.5756375 L195.380725,46.0718645 L208.253678,46.0718645 C209.122898,46.0718645 209.609472,46.4924179 209.61892,47.1114347 C209.61698,47.4472589 209.522147,47.7759923 209.344926,48.0612239 L209.344926,48.0517733 Z M162.775542,0 L134.771554,0 L115.204665,33.9277935 L143.236997,33.9277935 C147.866536,33.9277935 153.459775,30.6720484 155.755649,26.6933295 L166.970471,7.23446405 C169.261621,3.26047041 167.386185,0 162.775542,0 Z M154.059726,11.1942817 L147.129589,23.1965931 C146.474481,24.1190503 145.425805,24.6819943 144.295177,24.7181459 L131.152955,24.7181459 L140.095524,9.21437289 L152.968477,9.21437289 C153.837697,9.21437289 154.319547,9.630201 154.333719,10.2492178 C154.330186,10.5833274 154.235442,10.9101192 154.059726,11.1942817 L154.059726,11.1942817 Z M45.5773406,0 L33.2948898,21.2922894 L29.48733,0 L19.566889,0 L0,33.9325188 L10.6432161,33.9325188 L22.3682326,13.6136453 L25.9821075,33.9277935 L36.6347716,33.9277935 L56.2158327,0 L45.5773406,0 Z M223.507537,66.0930429 L220.200723,69.5614274 L220.838466,66.0930429 L219.567705,66.0930429 L216.856118,70.8183623 L217.687545,70.8183623 L219.888938,66.9861283 L219.917282,66.9861283 L219.194507,70.813637 L219.775562,70.813637 L223.450849,66.9814029 L223.446125,66.9814029 L221.25418,70.813637 L222.080883,70.813637 L224.797194,66.0883176 L223.507537,66.0930429 Z M214.418523,66.0930429 L214.031154,66.7782142 L216.053034,66.7782142 L213.161934,70.813637 L213.998086,70.813637 L216.879738,66.7782142 L218.325288,66.7782142 L218.722105,66.0930429 L214.418523,66.0930429 Z M57.1606366,50.1828924 L39.7620726,50.1828924 L40.7730128,48.4156229 C41.5052358,47.1492373 43.1350225,46.109667 44.3585436,46.0954911 L61.1855013,46.0954911 L75.1119109,36.8574916 L45.1616269,36.8574916 C40.5651559,36.8574916 34.9010565,40.1652152 32.5957349,44.1439341 L29.1944408,50.0600341 C26.8843953,54.0434783 28.7692791,57.2992234 33.3563021,57.32285 L50.9060347,57.32285 L49.3093161,60.05881 C48.6646585,60.9737264 47.6308402,61.5361945 46.5126965,61.5803628 L29.222785,61.5803628 L15.3294434,70.7852851 L45.2750034,70.7852851 C49.8950945,70.7852851 55.5355739,67.5248147 57.8408954,63.5366451 L61.355566,57.4504337 C63.6467154,53.4528134 61.7618316,50.1828924 57.1606366,50.1828924 Z M103.139519,36.8574916 L75.1827712,36.8574916 L55.57809,70.799461 L66.2213061,70.799461 L71.994058,60.8148611 L89.2839696,60.8148611 C93.8898886,60.8148611 99.5256439,57.5543907 101.849862,53.5709464 L107.306104,44.1203075 C109.625598,40.1652152 107.750162,36.8574916 103.139519,36.8574916 Z M94.4142548,48.0612239 L93.2426979,50.088386 C92.5966441,50.9900797 91.5728908,51.5456361 90.4649744,51.5957629 L77.318028,51.5957629 L80.4925692,46.0765898 L93.3182823,46.0765898 C94.5843195,46.0954911 95.0519974,46.9933017 94.4142548,48.0848505 L94.4142548,48.0612239 Z M120.684528,9.21437289 L134.592041,0 L96.4550312,0 L76.8928663,33.9325188 L113.267817,33.9325188 L118.572891,24.7181459 L92.9592568,24.7181459 L95.420471,20.4181053 L103.635541,20.4181053 L114.377961,13.3017742 L99.535092,13.3017742 L101.897102,9.21437289 L120.684528,9.21437289 Z M82.377453,9.21437289 L96.2849665,0 L58.1479567,0 L38.5810677,33.9325188 L74.9560182,33.9325188 L80.2705402,24.7228713 L54.6521822,24.7228713 L57.1133964,20.4228306 L65.3284664,20.4228306 L76.0567148,13.3017742 L61.2280174,13.3017742 L63.5900272,9.21437289 L82.377453,9.21437289 Z"/>
</svg>
