<?xml version="1.0" encoding="UTF-8"?>
<svg width="350px" height="249px" viewBox="0 0 350 249" version="1.1" xmlns="http://www.w3.org/2000/svg" xmlns:xlink="http://www.w3.org/1999/xlink">
    <!-- Generator: Sketch 56.2 (81672) - https://sketch.com -->
    <title>Group 38</title>
    <desc>Created with Sketch.</desc>
    <defs>
        <polygon id="path-1" points="0 0.107025399 349.787082 0.107025399 349.787082 217.744957 0 217.744957"></polygon>
        <polygon id="path-3" points="0.254461078 0.195808383 97.2724251 0.195808383 97.2724251 62.2848802 0.254461078 62.2848802"></polygon>
        <polygon id="path-5" points="0.150449102 0.195808383 120.451647 0.195808383 120.451647 62.2848802 0.150449102 62.2848802"></polygon>
    </defs>
    <g id="Production" stroke="none" stroke-width="1" fill="none" fill-rule="evenodd">
        <g id="Group-38" transform="translate(0.000000, 0.000000)">
            <path d="M51.1209281,169.358743 C50.9185329,169.056048 50.6900898,167.501856 49.9266168,168.087186 C49.4493713,168.453054 49.7912874,169.26503 49.0284132,169.455749 C48.3766168,169.619521 48.0616467,168.676407 47.7604491,168.78988 C47.4095509,168.922216 47.5966766,169.854551 47.7562575,170.07012 C47.9844012,170.378204 48.2802096,170.176407 48.4478743,170.592575 C48.545479,170.834192 48.3966766,171.322216 48.4002695,171.574611 C48.4083533,172.143473 48.4119461,171.978503 48.7673353,172.24976 C49.0763174,172.485689 49.0535629,172.329701 49.229012,172.741976 C49.3583533,173.045569 49.4074551,173.888084 50.0514671,173.511138 C50.6867964,173.139581 49.4269162,172.047365 49.6700299,171.542575 C49.8281138,171.213832 50.3769162,171.244371 50.6490719,171.364431 C51.0227246,171.529102 51.033503,171.948263 51.3098503,172.15515 C51.9460778,172.632096 52.2601497,171.557545 52.4930838,171.060539 C53.3263174,169.281796 53.9763174,168.585389 54.0077545,167.667425 C54.0113473,167.563234 53.9278144,166.646766 53.585,167.178802 C53.4751198,167.34976 53.2951796,167.79018 53.0811078,167.853653 C52.6966766,167.967425 52.7655389,167.70515 52.5278144,167.58 C51.9589521,167.280299 52.0257186,167.482395 51.4930838,167.787485 C51.2676347,167.916527 50.9802096,167.731796 50.980509,168.159042 C50.980509,168.37491 51.3948802,168.694072 51.5050599,168.836587 C51.9445808,169.405449 51.5427844,169.988683 51.1209281,169.358743" id="Fill-1" fill="#FFFFFF"></path>
            <path d="M46.7597305,172.394551 C45.9151198,172.548743 45.3214072,174.102036 46.2351796,174.066108 C46.8968563,174.03976 47.4851796,172.262814 46.7597305,172.394551" id="Fill-3" fill="#FFFFFF"></path>
            <path d="M48.4061377,174.557036 C48.9306886,174.801048 49.1875749,174.072904 48.7929641,173.747754 C48.323503,173.360629 47.964521,174.351647 48.4061377,174.557036" id="Fill-5" fill="#FFFFFF"></path>
            <path d="M51.060988,239.889371 C50.9343413,240.058234 50.8352395,240.271707 50.7223653,240.417216 C50.500509,240.702545 50.2286527,240.669611 50.0606886,240.434581 C50.0499102,240.419611 50.0424251,240.38518 50.0316467,240.36991 C49.8496108,240.110629 49.5229641,240.107335 49.3002096,240.492964 C49.197515,240.670808 48.9409281,240.657335 48.8561976,240.671707 C48.5720659,240.720509 48.4573952,241.003144 48.6178743,241.200749 C48.7780539,241.398653 49.0436228,241.713323 49.1981138,241.854341 C49.5558982,242.182186 48.6984132,242.907635 48.6223653,242.26003 C48.4582934,240.865719 47.6017066,240.704341 47.4202695,241.307036 C47.3511078,241.536677 47.3044012,241.75015 47.2391317,241.942665 C47.0106886,242.615419 46.4792515,243.01003 45.8852395,242.77979 C45.5819461,242.662126 45.763982,242.086078 45.3795509,242.284281 C45.0573952,242.450749 45.0523054,243.623802 45.6807485,243.831287 C46.0337425,243.947754 45.7867365,244.433084 45.8032036,245.524701 C45.8058982,245.706437 45.9181737,245.837874 46.2268563,245.81003 C46.6370359,245.772904 46.612485,246.127695 46.707994,246.567814 C46.7576946,246.798353 47.0220659,246.78518 47.257994,246.792066 C47.5286527,246.799551 47.7002096,246.547455 47.6067964,246.35015 C47.2463174,245.587275 46.6529042,245.251647 47.1696707,244.937275 C47.8813473,244.504341 48.2834431,244.577994 48.7265569,245.152246 C49.3274551,245.931287 49.9325449,243.198054 50.7651796,241.951647 C51.1993114,241.301647 51.4328443,240.706138 51.4744611,239.976497 C51.4888323,239.723503 51.1879341,239.72021 51.060988,239.889371" id="Fill-7" fill="#FFFFFF"></path>
            <path d="M43.7196707,245.903413 C43.5756587,245.789341 43.4726647,245.795329 43.4011078,245.962994 C43.2469162,246.324671 43.0026048,247.361796 42.4591916,247.123772 C41.0717665,246.516587 40.8466168,246.242335 41.3208683,244.771677 C41.347515,244.689341 41.4421257,244.448024 41.3163772,244.383952 C41.0463174,244.246527 40.7011078,244.566287 40.5714671,245.002515 C40.247515,246.093533 39.0076946,246.852216 39.7810479,247.283353 C40.1861377,247.509102 41.110988,247.012994 40.402006,248.29982 C40.2232635,248.624371 40.4214671,248.911497 40.9439222,248.690838 C41.846018,248.31 42.0508084,248.629461 42.3044012,248.634251 C42.7723653,248.642335 43.4541018,247.958503 44.0600898,246.883353 C44.3328443,246.399222 44.0463174,246.162096 43.7196707,245.903413" id="Fill-9" fill="#FFFFFF"></path>
            <path d="M44.2557485,247.643982 C43.6671257,248.190689 45.2365868,248.599671 45.2458683,247.633204 C45.2476647,247.44518 45.1069461,246.853263 44.2557485,247.643982" id="Fill-11" fill="#FFFFFF"></path>
            <path d="M47.9618563,247.473503 C47.9097605,247.200449 47.6337126,247.222006 47.3977844,247.537575 C46.8094611,248.324701 46.8250299,249.230988 47.3786228,248.790269 C47.9283234,248.352545 48.0681437,248.033084 47.9618563,247.473503" id="Fill-13" fill="#FFFFFF"></path>
            <path d="M348.552904,56.0602395 C349.02506,55.9638323 349.78494,55.7464671 349.75021,55.2150299 C349.739132,55.0464671 349.509192,54.7335928 348.748413,54.6817964 C348.118772,54.6383832 347.081647,54.9174251 346.998114,55.4758084 C346.912186,56.0488623 348.190329,56.134491 348.552904,56.0602395" id="Fill-15" fill="#FFFFFF"></path>
            <path d="M136.968383,118.506437 C136.914491,118.671707 137.124072,118.342066 136.968383,118.506437" id="Fill-17" fill="#FFFFFF"></path>
            <g id="Group-21" transform="translate(0.000000, 27.349102)">
                <mask id="mask-2" fill="white">
                    <use xlink:href="#path-1"></use>
                </mask>
                <g id="Clip-20"></g>
                <path d="M281.342186,40.1845808 C281.164641,40.7241018 279.865539,40.5833832 279.788892,40.0312874 C279.704162,39.4211078 281.63021,39.3085329 281.342186,40.1845808 M218.974222,121.192964 C218.191287,120.583982 220.063743,117.518413 220.605958,118.067814 C221.340988,118.812126 219.420629,121.540269 218.974222,121.192964 M217.303263,127.638174 C217.133204,127.873802 216.875719,128.976497 216.341587,128.569311 C215.807455,128.162126 216.861946,127.206437 217.171527,126.977096 C217.480808,126.747455 217.532904,126.472904 217.893982,126.601946 C218.254461,126.730389 217.473024,127.402844 217.303263,127.638174 M206.92991,73.5836826 C204.932006,75.023503 204.032006,76.2636228 202.321826,77.735479 C201.367635,78.5567365 200.330808,79.4489521 199.477515,80.2851796 C199.014641,80.7384731 198.159251,81.2402695 197.793683,81.6357784 C197.752964,81.6579341 197.659551,81.7181138 197.466138,81.8558383 C192.035,85.7270958 191.40476,87.3755988 187.946078,89.9785928 C180.84009,95.326497 175.176317,100.765719 166.718533,105.30524 C166.758353,105.234281 166.802365,105.162126 166.852665,105.086377 C170.911946,98.9875749 172.128413,99.1423653 175.218832,95.8830838 C174.822425,96.3336826 175.487994,95.7270958 175.640389,95.6022455 C177.211647,94.3178144 178.843683,93.0905689 179.783802,92.263024 C181.326018,90.9061377 182.690389,89.367515 184.263443,88.0459581 C185.836497,86.725 187.639192,85.6938623 189.262844,84.4447605 C191.918234,82.4016467 197.742485,76.6747006 205.320629,72.3052395 C206.70476,71.5067365 207.939192,71.6345808 209.146677,71.4462575 C208.434701,72.2067365 207.767036,72.9803892 206.92991,73.5836826 M136.968533,91.1573353 C136.972725,91.1450599 136.977515,91.130988 136.984701,91.113024 C149.317934,80.2504491 146.938593,82.1950599 153.901766,78.9504491 C159.216437,76.473503 162.161048,75.3782934 163.903862,76.0543413 C162.107455,77.2163174 160.751467,78.3773952 159.022725,79.6363772 C156.725419,81.3088323 148.115838,86.6851796 147.543683,87.1255988 C145.782904,88.4803892 144.152665,90.0525449 142.250569,91.2073353 C140.273024,92.4085329 138.258353,93.5288922 136.427216,94.9441617 C134.918533,96.1106287 133.469731,97.2417665 131.897275,98.2582335 C135.720629,92.7112275 136.74009,91.3989521 136.968533,91.1573353 M43.7858982,214.173204 C43.8442814,214.033982 44.2586527,212.718413 44.6311078,212.723191 C45.0038623,212.728293 44.6400898,213.510928 44.537994,213.751946 C44.4358982,213.992964 43.9903892,215.154341 43.6358982,215.122904 C43.2814072,215.091467 43.6649401,214.460928 43.7858982,214.173204 M50.8002695,137.639973 C50.1619461,137.642066 50.0595509,136.489671 50.8403892,136.405838 C51.6583533,136.317814 51.4493713,137.637874 50.8002695,137.639973 M45.8861976,141.98997 C45.4811078,141.901048 46.3544611,139.963323 46.6164371,139.825599 C47.3592515,139.43488 46.4074551,142.104042 45.8861976,141.98997 M349.602665,30.6226048 C349.173024,29.8214072 346.566737,29.8366766 346.269132,28.180988 C345.729611,25.1741018 341.828114,27.7633234 339.038293,27.8911677 C337.285898,27.9717066 335.578114,27.935479 333.834102,28.2073353 C332.177216,28.466018 330.572126,28.9878743 328.910749,29.2043413 C325.091886,29.7028443 322.00476,29.2079341 313.195778,30.4076347 C311.493383,30.6393713 309.735,30.733982 308.122425,31.3085329 C306.562246,31.864521 305.036796,32.0241018 303.393683,31.985479 C298.990689,31.8818862 294.572425,32.5067365 290.423024,33.982485 C288.612545,34.6261976 286.85476,34.5381737 285.041587,34.7163174 C282.464641,34.9702096 278.429611,36.1004491 275.918832,36.2025449 C272.488593,36.3426647 273.945479,35.7504491 263.811347,37.7842814 C265.119431,35.2163174 267.847874,29.7112275 268.777515,26.9929641 C269.179611,25.8178144 269.29997,26.3447605 272.106557,19.9791916 C272.348473,19.4303892 272.725719,18.9504491 273.04009,18.4549401 C274.655958,15.9067365 273.518832,18.1094311 276.846976,11.1495509 C277.44997,9.88817365 277.067934,9.63847305 277.801168,8.24356287 C278.292485,7.30943114 279.488593,5.86751497 278.593982,4.67889222 C276.201467,1.5004491 273.626617,1.11152695 272.100569,0.271407186 C269.812246,-0.988473054 268.744581,5.37979042 268.237395,6.24505988 C267.47512,7.54505988 266.821228,8.73008982 266.551168,9.12050898 C266.180808,9.65583832 266.241287,10.2088323 266.049072,10.6498503 C265.467036,11.9842814 264.802066,13.120509 264.193683,14.3797904 C262.950868,16.9510479 262.795479,17.9181138 261.946377,19.3423653 C259.945778,22.6983533 258.170329,26.1103293 256.718832,29.763024 C256.154461,31.1833832 255.176317,32.3639222 253.527216,36.2474551 C252.844281,37.8561377 252.401766,37.8929641 250.992784,40.3959581 C249.58021,40.5591317 248.150868,40.5785928 246.74518,40.8142216 C245.104461,41.0890719 243.57991,41.8100299 241.933802,42.030988 C240.195479,42.2648204 238.721527,41.8585329 236.996078,42.4244012 C235.52512,42.9073353 234.076018,43.9025449 232.484102,43.9986527 C231.748174,44.0432635 231.228713,43.6711078 230.531407,43.620509 C229.677216,43.5588323 228.642186,43.9447605 227.799072,44.0845808 C224.226018,44.6770958 220.878413,45.7920659 217.373922,46.6549401 C213.917335,47.5064371 210.446377,47.4926647 206.94009,47.9399701 C203.46524,48.3836826 200.054162,49.3717066 196.655958,50.1923653 C194.871527,50.6232036 192.98021,50.6010479 191.221826,51.1010479 C187.804461,52.0729042 184.302964,52.6983533 180.855958,53.585479 C177.658653,54.4082335 174.353563,54.7082335 171.173323,55.570509 C169.54009,56.0133234 168.083204,56.7076347 166.38021,56.8726048 C160.07512,57.485479 159.352665,58.4402695 156.621527,59.0654192 C156.580509,59.0747006 144.942186,61.0741018 143.940389,61.3800898 C143.246677,61.5917665 142.59518,62.0941617 141.88021,62.2223054 C141.259251,62.333982 140.686796,62.1399701 140.049671,62.2333832 C139.254162,62.3498503 138.52003,62.7579341 137.746677,62.9687126 C135.842784,63.4884731 135.945479,63.2151198 127.040988,65.4244012 C127.516138,64.436976 128.163743,63.0878743 129.077814,61.1953593 C129.885599,59.522006 129.398473,59.370509 130.372725,57.6082335 C131.555359,55.4684132 132.598473,54.0959581 131.804461,52.8468563 C130.27482,50.4417665 127.514341,49.8597305 125.14488,48.5429641 C122.877814,47.2827844 121.22482,54.7252994 120.711048,55.7738024 C120.371826,56.4654192 119.579012,57.5142216 119.303563,58.085479 C119.028413,58.6567365 118.837695,59.1761976 118.632305,59.4633234 C118.158353,60.1255988 118.211946,60.7974551 117.961048,61.3486527 C116.927515,63.6166168 115.958054,65.1022455 114.521826,68.3432635 C107.637994,70.2232036 112.402665,68.6522455 88.083503,75.2648204 C88.7212275,73.935479 89.3565569,72.9115269 89.7829042,71.7091317 C89.973024,71.1729042 90.0074551,70.5752994 90.2122455,70.0537425 C90.4302096,69.5001497 90.8571557,69.0046407 91.1287126,68.470509 C91.7110479,67.3244012 92.0457784,66.0833832 92.5841018,64.9229042 C93.1053593,63.7986527 94.0239222,62.8938623 94.574521,61.7726048 C97.2873952,56.2465569 96.395479,56.4959581 97.2544611,55.0390719 C97.7628443,54.176497 98.4814072,53.1420659 97.5634431,52.2702096 C96.793982,51.5393713 96.0580539,50.7504491 95.1643413,50.1669162 C94.1089521,49.477994 92.8544611,49.2893713 91.7173353,48.777994 C90.7658383,48.3501497 89.9373952,47.7516467 89.130509,48.7776946 C88.4682335,49.6199102 88.0942814,50.8238024 87.9053593,51.8609281 C87.4829042,54.1785928 86.6212275,54.1025449 85.8951796,56.0582335 C85.7526647,56.4417665 85.8571557,56.8516467 85.7212275,57.2465569 C85.3823054,58.2348802 84.7906886,58.5782934 83.3341018,62.620509 C82.9625449,63.6522455 82.2287126,64.5273952 81.643982,65.4441617 C79.0212275,69.5570359 79.5427844,70.2178144 78.7095509,72.0453593 C78.2014671,73.1603293 77.4215269,74.1193114 76.9547605,75.2726048 C76.7427844,75.7971557 76.6170359,76.3953593 76.3311078,76.8860778 C75.9739222,77.4977545 75.4921856,77.7318862 74.9092515,78.6157186 C64.1427844,81.3803892 64.6161377,80.7890719 62.8436826,81.5938623 C60.0793114,82.8483533 56.9559581,83.3022455 54.0412874,84.2567365 C48.3951796,86.1061377 47.4391916,86.0357784 39.8203293,88.3333832 C38.1903892,88.825 36.5248204,88.8914671 34.8999701,89.2995509 C31.4397904,90.1681138 27.9637425,91.4465569 24.5673353,92.5504491 C23.079012,93.0342814 21.6966766,93.7642216 20.2194311,94.2684132 C18.6323054,94.8091317 16.9634431,94.9528443 15.3637425,95.4393713 C13.7649401,95.9255988 12.2418862,96.5618263 10.5966766,96.8989521 C8.79667665,97.2681138 7.07062874,97.5139222 5.33020958,98.1423653 C3.48260479,98.8091317 -1.22757485,99.9037425 0.29997006,102.739371 C1.42422156,104.825898 4.73290419,105.49985 6.66494012,106.540269 C9.5844012,108.112725 11.887994,109.16482 15.1619461,107.822605 C28.343982,102.418713 29.5799102,103.518114 33.9814072,101.260329 C36.9167365,99.7549401 40.3589521,99.0387725 43.4957784,98.0483533 C55.4302096,94.2800898 56.2685329,94.0408683 58.1718263,93.7711078 C59.8571557,93.532485 61.1655389,92.5016467 62.7781138,92.0974551 C65.8595509,91.323503 66.6176347,91.3288922 69.2595509,90.375 C68.7089521,91.6241018 68.1927844,91.7351796 67.8412874,92.4522455 C67.5664371,93.013024 67.3978743,93.6306886 67.1559581,94.2070359 C65.9897904,96.9872754 66.0694311,95.9169162 63.983503,100.51482 C63.3311078,101.953443 61.4829042,104.933383 61.286497,105.525 C61.0523653,106.230988 61.0370958,106.86482 60.6751198,107.550749 C59.5107485,109.755838 57.993982,111.682186 57.0586527,114.022605 C56.1451796,116.308533 54.7005689,118.356437 53.785,120.667216 C53.3769162,121.697455 52.7586527,122.488174 52.2047605,123.43488 C51.5855988,124.492066 51.4332036,125.699251 50.8619461,126.756437 C50.2942814,127.807635 49.4050599,128.585778 48.987994,129.729192 C47.9062575,132.695958 47.7885928,132.094461 46.5332036,134.544461 C46.232006,135.132485 46.2622455,135.864521 45.9251198,136.433084 C45.6948802,136.820509 45.4194311,137.07021 45.2284132,137.511826 C43.3317066,141.895958 42.8637425,142.620509 43.2918862,142.631287 C43.9427844,142.648054 44.4574551,139.43518 45.236497,140.267216 C45.6116467,140.667515 44.927515,141.733683 44.6808084,142.049251 C44.3430838,142.480689 44.033503,142.691168 44.0586527,143.289072 C44.0715269,143.600449 44.1966766,143.662126 44.1197305,143.95015 C44.0529641,144.201048 43.2152395,144.838174 43.4062575,145.16482 C43.4975749,145.321108 44.1493713,145.358234 44.2697305,145.292665 C44.7101497,145.051048 44.9604491,143.827994 44.9068563,143.463024 C44.7562575,142.442066 45.5876946,142.068114 45.7930838,143.208533 C45.8547605,143.549251 45.6694311,143.990569 45.8083533,144.310329 C45.9876946,144.722605 46.6844012,144.824401 47.0682335,144.51482 C47.5158383,144.153743 46.995479,143.925898 46.8185329,143.586078 C46.5257186,143.023204 46.8466766,142.503144 47.0634431,141.972904 C47.2541617,141.506737 47.4251198,141.024401 47.7406886,140.622904 C48.0900898,140.178293 48.2757186,140.000749 48.5427844,140.496557 C48.6206287,140.641467 48.537994,141.358234 48.7912874,141.396257 C49.2646407,141.467515 49.2382934,140.70494 49.4104491,140.461228 C49.846976,139.842964 51.3017665,140.563922 51.2619461,139.559731 C51.2296108,138.742665 50.2430838,139.062126 49.7832036,138.856138 C49.5475749,138.750749 49.5610479,138.523802 49.2478743,138.512725 C48.6796108,138.492964 48.8263174,139.078293 48.5640419,139.341168 C48.0071557,139.899251 47.4595509,138.066317 48.0960778,137.711228 C48.4155389,137.533383 49.3098503,137.484581 49.6475749,137.690569 C49.9221257,137.857934 49.9436826,138.345958 50.1966766,138.441168 C50.7867964,138.662725 51.5532635,137.680389 52.187994,137.769611 C52.4017665,137.799251 52.7508683,137.895958 52.6191317,138.225898 C52.4921856,138.542964 52.0505689,138.276796 51.886497,138.576497 C51.6080539,139.08518 52.3269162,139.106437 52.5829042,139.012126 C53.0565569,138.837874 52.9176347,138.444461 53.4852994,138.800749 C53.7293114,138.954042 53.7855988,139.303443 54.0002695,139.169012 C54.2457784,139.015419 53.9116467,138.311826 54.1808084,138.180689 C54.6448802,137.954042 54.0784132,139.648952 54.4541617,139.766617 C54.7508683,139.858832 54.9056587,138.796557 55.4272156,137.725898 C55.9897904,136.570509 56.8927844,135.719012 57.5188323,134.578593 C58.0703293,133.573503 58.7475749,132.504341 59.1385928,131.423802 C59.3113473,130.947156 59.1269162,130.389671 59.439491,130.023802 C59.5733234,129.867515 59.9523653,129.782186 60.1236228,129.623503 C61.1571557,128.664521 60.6838024,127.643263 63.496976,123.154641 C65.1466766,120.522605 67.5628443,115.230988 67.8239222,114.851048 C68.1092515,114.435479 68.5080539,114.127096 68.7781138,113.689371 C69.3586527,112.748353 69.5709281,111.622605 70.0478743,110.628892 C70.5885928,109.503144 71.2900898,108.466617 71.8784132,107.366916 C72.4858982,106.230689 72.893982,104.987275 73.5272156,103.869611 C73.8134431,103.364521 74.2155389,102.967814 74.5332036,102.490269 C74.8811078,101.967515 74.8538623,101.614521 74.9724251,101.032186 C75.2152395,99.8387725 76.1957784,98.6261976 76.7951796,97.5726048 C78.1128443,95.2567365 79.1814072,92.8252994 80.4418862,90.4815868 C81.3667365,88.7624251 81.8891916,88.5761976 82.5233234,86.322006 C100.852665,81.2258982 106.369132,79.8818862 108.816437,79.2977545 C107.807455,81.2621257 106.722725,83.5363772 105.61524,86.2022455 C104.846377,88.0528443 103.603263,89.564521 101.277216,94.8414671 C100.176617,97.3381737 99.6511677,96.7408683 95.6451796,104.891168 C85.874521,124.771707 86.9685329,122.827695 85.9077545,124.439371 C85.4448802,125.142964 85.0242216,125.998952 84.6631437,126.824401 C81.5718263,133.889371 81.0382934,133.936078 78.2215269,140.039371 C77.2020659,142.248054 78.1948802,140.361228 72.7631437,150.66512 C72.3086527,151.527096 71.7550599,153.838174 71.4427844,154.422305 C69.9556587,157.202545 68.0852994,159.725898 66.7490719,162.576497 C63.8691317,168.720808 60.5382934,174.595659 57.9116467,180.847156 C57.0535629,182.888473 56.5391916,185.054641 55.4682335,186.992665 C54.6323054,188.505539 54.6083533,188.906737 53.843982,190.435778 C53.0799102,191.964222 51.4661377,193.070509 51.2113473,194.598353 C50.9095509,196.407036 49.0341018,198.567515 48.2412874,201.586377 C48.1332036,201.998054 46.4727246,205.114222 45.7607485,205.967515 C45.5382934,206.233982 45.3799102,206.814222 45.0999701,206.977395 C44.5206287,207.31482 44.3793114,207.935479 44.4221257,208.304341 C44.4592515,208.625898 44.3999701,208.891766 43.9963772,209.190868 C43.4490719,209.596557 43.3011677,210.510928 41.1984731,215.463024 C41.1248204,215.636377 41.0490719,215.813623 41.0918862,215.919311 C41.1347006,216.025599 41.1882934,216.001347 41.2460778,215.968114 C41.9847006,215.547455 42.079012,213.327695 42.9284132,213.397754 C43.637994,213.456437 42.7622455,215.063024 42.4296108,215.441766 C41.4888922,216.512126 42.5056587,216.892665 42.0032635,217.227994 C41.8876946,217.30524 41.6966766,217.317216 41.6996707,217.426497 C41.7092515,217.81003 43.2957784,217.717515 42.7475749,216.624701 C42.6017665,216.333982 42.6724251,215.48009 43.126018,215.686377 C43.9134431,216.043862 42.9918862,217.838174 43.7167365,217.741168 C43.9182335,217.713922 44.1870958,217.684581 44.4284132,217.623503 C44.6694311,217.562126 44.7781138,217.279491 44.6412874,217.072006 C44.4317066,216.753743 43.9852994,216.523802 44.4326048,215.663922 C44.8697305,214.823802 45.2209281,214.01482 45.9631437,213.316916 C46.0888922,213.198353 46.2891916,213.473802 46.2589521,213.536078 C45.8796108,214.31482 46.2742216,214.64506 46.389491,214.642964 C47.0140419,214.633383 46.8475749,213.854641 47.1987725,213.512126 C47.5505689,213.16991 48.1179341,213.63488 48.5140419,213.307635 C48.9101497,212.980988 48.8254192,212.118114 48.2107485,212.227096 C47.2679341,212.394461 47.5667365,210.90494 46.4269162,210.871108 C45.7580539,210.851048 45.4248204,211.190569 45.6370958,211.548054 C45.7978743,211.819012 46.4873952,212.071407 46.345479,212.347754 C46.2706287,212.493563 46.0005689,212.632784 45.9553593,212.374102 C45.7263174,211.073503 44.2676347,212.756138 43.7517665,212.172605 C43.5766168,211.974701 44.5595509,209.637275 46.0613473,210.139072 C46.6263174,210.327695 47.0170359,210.208234 47.482006,210.613323 C47.637994,210.749251 47.686497,210.956737 47.6742216,211.163024 C47.6616467,211.372305 47.8137425,211.632186 48.0131437,211.592066 C48.6640419,211.460928 50.0026647,210.611826 50.0161377,211.595659 C50.0191317,211.806437 49.6167365,211.822605 49.4571557,211.897754 C49.1634431,212.036078 49.1628443,212.412425 49.4679341,212.490269 C49.8176347,212.579192 49.9457784,212.35524 50.2718263,211.999251 C50.4688323,211.784281 50.8344012,211.693563 50.9344012,211.948054 C51.0341018,212.202545 51.3095509,212.22021 51.4137425,212.049551 C51.5634431,211.804042 51.3990719,211.069611 51.7559581,211.129192 C52.1128443,211.189072 51.6308084,212.092365 51.780509,212.376497 C51.7867964,212.389371 52.0475749,212.857635 52.3026647,211.810928 C52.5191317,210.921707 54.2544611,209.023204 54.973024,207.324102 C55.227515,206.722605 55.4769162,206.387874 56.3095509,204.826198 C57.0993713,203.34506 56.4412874,202.736976 57.4601497,200.945958 C57.6302096,200.694461 57.5535629,200.454341 57.6544611,200.239371 C58.0302096,199.439072 59.0101497,197.730689 59.1709281,197.326796 C59.7885928,195.775 60.5936826,195.774102 61.5131437,194.09985 C66.6086527,184.817814 72.4559581,175.909731 76.6823054,166.197156 C79.9766168,158.625299 88.1065569,142.93997 88.8020659,141.809731 C90.5406886,138.983084 89.9352994,138.858832 91.1367964,136.552545 C99.629012,120.251647 99.4562575,120.039072 102.969132,113.607036 C104.453862,110.889072 104.390689,109.36512 106.153263,106.519311 C107.182305,104.857335 108.106856,103.690269 108.777216,101.512725 C109.142186,100.327395 115.991587,88.767515 118.803563,81.3004491 C119.281707,80.0306886 119.46524,80.1998503 121.573623,75.7591317 C125.967635,74.775 129.48979,74.2420659 132.37991,73.3091317 C146.433204,68.7729042 140.791886,71.363024 152.587395,68.0372754 C154.09518,67.6121257 155.688593,67.8109281 157.234701,67.5558383 C162.179611,66.7402695 164.078114,64.6917665 166.764641,64.8663174 C168.611048,64.9860778 170.091587,64.3411677 171.777515,63.7064371 C173.182605,63.1773952 174.731407,63.1773952 176.20985,63.0187126 C182.570629,62.3363772 198.235898,57.6381737 202.556557,56.9300898 C204.805659,56.5612275 209.755359,56.8848802 218.81494,53.7285928 C222.488892,52.4486527 220.585299,54.5815868 225.030509,53.4007485 C228.524222,52.4726048 232.00476,52.0013473 235.552964,51.3758982 C238.970928,50.7732036 241.241587,50.1414671 246.749371,49.0273952 C246.520928,49.5019461 242.771826,54.2300898 242.307754,54.7863772 C240.975419,56.382485 240.930509,57.1073353 238.31494,60.2926647 C238.332904,60.2288922 237.79518,60.8022455 237.584701,61.0124251 C229.194581,69.3980539 228.586497,70.7546407 227.757455,71.4654192 C223.521826,75.0968563 224.241886,75.2312874 220.727814,79.1019461 C220.138593,79.7513473 219.199072,80.4510479 218.625719,81.1157186 C218.473623,81.2920659 217.071228,82.8073353 217.192186,82.7088323 C215.524222,84.3845808 214.323623,85.5267964 213.38979,86.3815868 C214.253263,84.5612275 215.057156,82.7247006 215.906557,80.8884731 C216.558054,79.4806886 217.512545,78.3312874 217.899671,76.735479 C218.216737,75.4285928 219.707455,74.964521 219.419431,73.2100299 C218.971228,70.4818862 214.861946,68.0468563 212.334701,69.0579341 C211.815539,69.2654192 211.362246,69.5241018 210.94997,69.8127246 C210.331707,69.0336826 208.634701,68.2516467 208.338293,68.1441617 C203.34518,66.3306886 203.408054,65.3432635 195.928413,69.1507485 C194.073323,70.0950599 192.518234,71.5851796 190.77991,72.7306886 C187.704162,74.7582335 186.432904,75.0477545 183.148772,77.9244012 C182.098473,78.5303892 181.051168,79.1432635 180.054162,79.8405689 C177.617335,81.5447605 174.622725,83.0291916 172.289192,84.8744012 C164.329012,91.1693114 162.252964,91.5471557 156.846377,95.5827844 C154.353862,97.4435629 150.803563,99.2315868 148.12991,100.809132 C142.699072,104.014521 137.661347,107.736078 132.072126,110.660629 C129.455659,112.029491 126.910449,113.496557 124.365838,114.984581 C124.731407,113.780988 125.223922,112.583683 125.670928,111.407934 C128.019132,110.101347 130.287395,109.277695 132.235898,107.71991 C133.783802,106.482784 135.385599,105.309132 137.101467,104.317814 C145.705659,99.3492515 143.537695,99.7118263 148.917635,96.4444611 C152.963443,93.9872754 156.491886,90.9055389 160.506257,88.3926647 C164.468832,85.9121257 164.844581,84.619012 172.171228,79.8803892 C173.071826,79.2983533 173.126916,78.2028443 172.253263,77.5163174 C163.756557,70.8366766 160.588593,71.6917665 156.350868,71.9229042 C151.618533,72.1803892 153.217635,71.2693114 144.742485,75.2163174 C138.941886,77.9172156 140.094281,76.6878743 132.049072,83.7232036 C129.949072,85.5597305 127.85476,87.1875749 126.23979,89.4615269 C125.587096,90.3806886 119.688892,98.7208084 119.233802,99.5947605 C118.932305,100.173503 117.37003,104.526796 116.173323,107.903144 C110.537994,111.095359 113.875719,110.231287 105.704162,112.585778 C103.686796,113.167515 105.86015,114.626497 106.796377,115.128293 C108.480509,116.030988 111.004461,117.592665 112.998174,117.018114 C113.088293,116.97979 113.400569,116.857036 113.870928,116.67021 C113.770329,117.761228 113.695479,118.853443 113.571527,119.911527 C113.403862,121.33997 115.938293,122.480689 116.811647,122.910629 C118.619132,123.799251 120.684701,125.396557 122.430808,124.722605 C125.742186,123.444461 137.813144,116.182784 138.65476,115.739671 C141.290988,114.351946 144.087096,113.137874 146.546976,111.450749 C151.406257,108.118114 154.133503,106.407635 156.037695,105.258832 C155.908952,105.895659 155.823922,106.574701 155.796377,107.30524 C155.705958,109.718413 159.159251,111.443563 160.713443,112.292066 C162.930808,113.502545 163.958054,114.659132 166.283204,114.164521 C169.361647,113.509731 173.122725,110.769012 175.48979,109.571407 C181.331407,106.616018 183.62991,104.259431 187.717335,101.449251 C189.671527,100.106138 191.222425,98.6097305 192.982605,97.1148204 C194.565838,95.7708084 196.297275,94.7878743 197.891587,93.464521 C199.547575,92.0893713 200.762545,90.5773952 202.565838,89.0866766 C201.537695,91.2974551 200.485299,92.8941617 199.367635,95.1702096 C198.702964,96.5232036 197.243084,99.5519461 196.451467,100.955539 C195.705958,102.277096 194.827814,102.823802 194.732006,104.429192 C194.653563,105.741766 196.527515,106.933683 197.853263,107.601347 C199.179012,108.269012 201.501766,110.034281 203.075719,108.983683 C204.489491,108.040269 203.821527,108.120808 209.173922,102.315719 C217.062545,94.7678144 213.839491,98.0267964 218.70506,92.4857784 C219.533802,91.5423653 219.867335,91.1474551 219.972425,91.0112275 C230.527814,81.1642216 227.621527,82.5073353 230.648174,79.5770958 C231.856557,78.4085329 232.412545,77.9106287 232.925419,77.4169162 C232.725719,77.8474551 232.570928,78.2226048 232.479611,78.5327844 C231.426916,82.1091317 229.72003,83.8543413 226.80985,90.6079341 C226.011347,92.4606287 224.871826,94.2483533 222.591587,99.7393713 C221.794581,101.659132 220.814641,102.716617 219.572425,106.20015 C219.571228,106.203743 219.57003,106.207335 219.568832,106.210329 C219.37482,106.752246 219.099671,107.265719 218.783503,107.746257 C217.223323,110.118114 216.894581,110.97979 215.587096,113.733383 C215.424521,114.075898 214.64518,116.26003 214.373623,116.98997 C214.333802,117.096557 213.844581,117.787874 214.350868,117.935479 C214.857156,118.083383 214.839491,116.041168 215.405958,116.354641 C215.972425,116.668114 214.608653,118.203443 214.892186,118.572305 C215.175419,118.941168 215.368234,118.434281 215.675419,118.380988 C215.982605,118.327695 216.177515,119.044461 216.193084,119.501347 C216.213443,120.095659 216.70985,121.547754 217.34009,120.698952 C217.713743,120.195359 216.535898,119.621407 217.071826,119.255838 C218.143982,118.524102 218.242784,121.926796 218.648772,122.510329 C219.05476,123.094162 220.005958,121.431886 220.233802,121.783383 C220.461647,122.13518 219.529311,123.092066 219.113443,123.470808 C217.86494,124.607036 217.707754,123.888174 217.363743,122.342066 C217.053263,120.946557 215.712844,121.266018 215.839192,122.71482 C215.89518,123.359731 216.02991,124.469012 215.983503,125.006737 C215.937096,125.544461 215.382904,125.844461 215.685898,126.134281 C215.989192,126.424701 216.410449,126.115419 216.56015,126.002545 C216.70985,125.889671 217.114641,125.871707 217.045479,126.000449 C216.637994,126.756737 215.461048,127.865719 215.177814,128.564222 C214.816737,129.455539 214.353563,129.912725 213.909551,130.177395 C213.143683,130.633683 213.352365,131.393563 213.860749,131.505838 C215.032006,131.764521 215.035,129.897455 216.190689,129.930988 C216.857455,129.95015 216.016737,131.025599 215.846078,131.14506 C215.05985,131.693563 215.346677,132.974102 216.079611,132.551946 C216.487096,132.317216 216.043084,131.896557 216.26494,131.716617 C217.032904,131.091766 217.377216,127.444461 218.24009,128.002246 C218.928413,128.446856 217.876018,130.476497 217.837695,131.204341 C217.834701,131.260928 217.751467,131.682784 218.036497,131.179192 C219.155359,129.20015 220.196377,126.52021 221.362844,124.180389 C221.653263,123.597754 221.821527,123.105539 222.421826,122.227395 C222.508952,122.100449 223.508054,120.253743 223.948772,119.093563 C224.096078,118.705539 224.247275,118.31482 224.418832,117.936976 C227.07482,112.095359 227.446078,112.257036 227.74488,110.50015 C227.85985,109.822904 228.813743,109.544461 229.728713,107.375 C231.817036,102.422006 231.924222,103.130988 238.072126,89.9663174 C238.736796,88.5432635 239.415838,88.0597305 240.388593,85.6372754 C242.076617,81.4336826 243.068533,80.1669162 245.114341,75.5875749 C246.646976,72.1561377 247.428114,71.8004491 247.92991,69.6091317 C248.150868,68.6456587 249.789491,66.0755988 252.804461,59.926497 C257.703862,49.933982 257.240689,51.7618263 258.203563,48.7273952 C258.421826,48.0390719 258.64997,47.4899701 258.881108,47.0202096 C261.796377,46.3001497 263.223922,46.5333832 265.643383,46.1711078 C268.316138,45.7708084 270.831108,45.1073353 273.539192,44.8773952 C275.976617,44.6702096 278.333204,44.3139222 280.701766,43.680988 C280.993084,43.6028443 283.585898,43.270509 283.537695,42.836976 C283.436796,41.9238024 281.536497,43.2079341 280.293982,42.7666168 C279.252665,42.3971557 280.122126,40.8034431 281.28021,41.3100299 C283.15476,42.1300898 283.628713,41.4866766 283.647275,40.8543413 C283.661048,40.3863772 282.403563,41.0351796 282.402964,40.5672156 C282.402665,40.3402695 283.510449,40.0067365 284.235299,40.1025449 C285.375719,40.2531437 285.123024,42.277994 286.14997,42.7582335 C287.111647,43.2073353 288.564641,42.6360778 289.565539,42.6543413 C291.167335,42.683982 292.511647,42.8010479 294.043383,42.1708084 C295.411347,41.6076347 296.57482,40.982485 298.085,40.8597305 C299.832605,40.717515 301.584102,40.7797904 303.332006,40.582485 C306.090988,40.2711078 308.686796,39.4187126 311.369731,38.7663174 C325.750269,35.2672156 330.451467,36.9378743 329.113443,35.4288922 C328.089491,34.2744012 336.161048,34.4079341 337.080808,34.3076347 C339.491886,34.0447605 341.897575,33.4636228 344.304461,33.1261976 C345.989192,32.8899701 350.781407,32.8193114 349.602665,30.6226048" id="Fill-19" fill="#FFFFFF" mask="url(#mask-2)"></path>
            </g>
            <path d="M211.360958,157.189731 C211.128323,158.233743 211.772635,158.217275 212.336707,157.674461 C212.556168,157.463383 212.654671,156.98524 212.521138,156.776557 C212.101377,156.122066 211.43521,156.855898 211.360958,157.189731" id="Fill-22" fill="#FFFFFF"></path>
            <path d="M214.627904,154.553293 C214.84976,154.497605 214.898862,154.796407 215.150659,154.772156 C215.402455,154.747904 216.457545,154.333832 216.233293,153.973353 C216.009042,153.612874 215.434192,154.013473 215.129102,153.938323 C213.869222,153.628743 215.138084,152.916766 214.680898,152.166766 C214.367425,151.652994 213.725808,151.972156 213.174311,151.828743 C212.836886,151.741317 212.862335,151.244311 213.259641,150.967665 C213.867725,150.544311 214.230599,151.021257 214.930898,151.196407 C215.630898,151.371557 215.459042,150.097305 215.548862,149.561677 C215.743174,148.402096 214.718024,148.868263 214.211737,147.891916 C213.66503,146.837425 214.897964,145.517365 213.948862,145.579042 C213.360539,145.617365 210.517425,152.55 210.457545,153.113174 C210.366826,153.969162 212.092575,153.285928 212.369521,153.802994 C212.918623,154.828743 211.578204,154.558383 211.168024,155.005689 C210.757844,155.453293 211.130599,155.964072 211.75515,155.806287 C212.013533,155.741018 212.419521,155.45 212.640479,155.807485 C212.75485,155.992216 213.031198,156.175749 213.165629,156.049102 C213.715329,155.532934 213.855749,154.745808 214.627904,154.553293" id="Fill-24" fill="#FFFFFF"></path>
            <path d="M209.784251,155.928952 C209.71509,156.326557 210.401916,156.43015 210.598623,155.826557 C210.795329,155.223263 209.93485,155.065479 209.784251,155.928952" id="Fill-26" fill="#FFFFFF"></path>
            <path d="M215.442186,147.293982 C215.570629,147.141287 215.428713,146.722126 215.22512,146.649371 C214.808353,146.49997 214.517635,146.436198 214.435,146.969431 C214.352365,147.502665 215.043982,147.766138 215.442186,147.293982" id="Fill-28" fill="#FFFFFF"></path>
            <polygon id="Fill-30" fill="#FFFFFF" points="120.302934 0.299401198 100.899341 39.105988 97.018503 0.299401198 77.6149102 0.299401198 46.5691018 62.3886228 65.972994 62.3886228 85.3762874 23.5835329 89.2571257 62.3904192 108.660719 62.3886228 139.706527 0.299401198"></polygon>
            <g id="Group-34" transform="translate(116.167665, 0.103593)">
                <mask id="mask-4" fill="white">
                    <use xlink:href="#path-3"></use>
                </mask>
                <g id="Clip-33"></g>
                <polygon id="Fill-32" fill="#FFFFFF" mask="url(#mask-4)" points="70.1074551 23.4797904 39.0616467 23.4797904 42.942485 15.7181138 77.8688323 15.7181138 97.2724251 0.195658683 31.3002695 0.195658683 0.254461078 62.2848802 19.6580539 62.2848802 31.3002695 39.0013473 50.7038623 39.0013473"></polygon>
            </g>
            <g id="Group-37" transform="translate(151.197605, 0.103593)">
                <mask id="mask-6" fill="white">
                    <use xlink:href="#path-5"></use>
                </mask>
                <g id="Clip-36"></g>
                <path d="M89.230988,23.4800898 L62.2414671,23.4800898 L66.122006,15.7184132 L101.048353,15.7184132 L120.451647,0.195658683 L71.9429641,0.195658683 L42.836976,23.480988 L42.0968563,24.9612275 C38.8714072,31.4118263 43.5621257,39.0019461 50.7741018,39.0019461 L77.7642216,39.0019461 L73.8833832,46.763024 L19.5537425,46.763024 L0.150449102,62.2848802 L73.533982,62.2848802 C80.8830838,62.2848802 87.6019461,58.132485 90.8887725,51.5594311 L97.9082335,37.5208084 C101.133683,31.0699102 96.4429641,23.4800898 89.230988,23.4800898" id="Fill-35" fill="#FFFFFF" mask="url(#mask-6)"></path>
            </g>
        </g>
    </g>
</svg>